<svg id="Layer_1" enable-background="new 0 0 510.947 510.947" height="512" viewBox="0 0 510.947 510.947" width="512" xmlns="http://www.w3.org/2000/svg"><path d="m465.271 281.437h-47.302v-125.27c0-8.836-7.164-16-16-16h-114.441l-92.139-133.272c-6.357-9.194-19.967-9.193-26.322 0l-136.553 197.515c-7.314 10.582.258 25.099 13.161 25.099h47.302v125.27c0 8.836 7.164 16 16 16h114.441l92.139 133.272c6.357 9.194 19.967 9.193 26.322 0l136.553-197.515c7.315-10.582-.258-25.099-13.161-25.099zm-136.553 185.381c-83.674-121.029 26.332 38.092-106.04-153.38h32.801c8.836 0 16-7.164 16-16v-67.928h47.302c12.887 0 20.484-14.506 13.161-25.099l-22.291-32.243h76.318v125.27c0 8.836 7.164 16 16 16h32.789z"/></svg>